# xmcd
#
# Track frame offsets: 
#        150
#        13388
#        25604
#        37914
#        51449
#        64180
#        78260
#        89584
#        101412
#        114404
#        125468
#        138276
#        150782
#        163084
#        175675
#        189109
#        200774
#        213614
#        228155
#        240202
#        250974
#        263665
#        279173
#        291595
#        304320
#        318163
#
# Disc length: 4418 seconds
#
# Revision: 1
# Processed by: cddbd v1.5.1PL0 Copyright (c) Steve Scherf et al.
# Submitted via: ExactAudioCopy v0.90b4
#
DISCID=5c11401a
DTITLE=Sonny Terry and Brownie McGhee - Sportin' Life Blues [CD2]
DYEAR=2003
DGENRE=Blues
TTITLE0=Bad Blood
TTITLE1=Big Legged Women
TTITLE2=Whoopin' The Blues
TTITLE3=Leavin' Blues
TTITLE4=Riff And Harmonica Jump
TTITLE5=All Alone Blues
TTITLE6=Pawnshop Blues
TTITLE7=The Way I Feel
TTITLE8=Go On Blues
TTITLE9=Harmonica Rag
TTITLE10=Screamin' And Cryin' Blues
TTITLE11=Beer Garden Blues
TTITLE12=Worried Man Blues
TTITLE13=Poor Boy Blues
TTITLE14=Custard Pie Blues
TTITLE15=Crow Jane Blues
TTITLE16=Early Morning Blues
TTITLE17=Hot-Headed Woman
TTITLE18=My Fault
TTITLE19=Gin Headed Woman
TTITLE20=Goin' Down Slow
TTITLE21=Telephone Blues
TTITLE22=Dirty Mistreater, Don't You Know
TTITLE23=Airplane Blues
TTITLE24=Don't Dog Your Woman
TTITLE25=Daisy
EXTD=
EXTT0=
EXTT1=
EXTT2=
EXTT3=
EXTT4=
EXTT5=
EXTT6=
EXTT7=
EXTT8=
EXTT9=
EXTT10=
EXTT11=
EXTT12=
EXTT13=
EXTT14=
EXTT15=
EXTT16=
EXTT17=
EXTT18=
EXTT19=
EXTT20=
EXTT21=
EXTT22=
EXTT23=
EXTT24=
EXTT25=
PLAYORDER=
